<?xml version="1.0" standalone="no"?>
<!DOCTYPE svg PUBLIC "-//W3C//DTD SVG 20010904//EN"
 "http://www.w3.org/TR/2001/REC-SVG-20010904/DTD/svg10.dtd">
<svg version="1.0" xmlns="http://www.w3.org/2000/svg"
 width="1201.000000pt" height="676.000000pt" viewBox="0 0 1201.000000 676.000000"
 preserveAspectRatio="xMidYMid meet">
<metadata>
Created by potrace 1.16, written by Peter Selinger 2001-2019
</metadata>
<g transform="translate(0.000000,676.000000) scale(0.100000,-0.100000)"
fill="#000000" stroke="none">
<path d="M3830 3742 l0 -279 -42 40 c-83 79 -224 121 -338 99 -216 -40 -360
-217 -360 -441 0 -205 114 -368 301 -431 131 -45 293 -10 398 85 l41 37 0 -61
0 -61 65 0 65 0 0 645 0 645 -65 0 -65 0 0 -278z m-149 -288 c104 -59 159
-163 159 -300 0 -138 -59 -238 -175 -295 -59 -29 -70 -31 -147 -27 -128 5
-211 58 -269 170 -34 64 -39 212 -10 289 29 76 79 132 154 169 58 30 68 31
148 28 72 -3 93 -9 140 -34z"/>
<path d="M6950 3443 c0 -539 2 -581 19 -618 22 -50 71 -92 114 -100 18 -4 57
-5 87 -3 l55 3 3 58 3 59 -30 -7 c-17 -4 -46 -2 -64 4 -64 21 -62 -1 -65 619
l-3 562 -59 0 -60 0 0 -577z"/>
<path d="M4453 3595 c-174 -49 -287 -181 -313 -366 -29 -206 64 -390 239 -477
73 -36 78 -37 185 -37 91 1 121 5 168 24 92 36 186 131 216 219 l11 32 -64 0
c-60 0 -65 -2 -79 -27 -21 -42 -75 -89 -126 -112 -56 -25 -166 -28 -233 -5
-91 31 -174 133 -193 237 l-6 37 356 0 356 0 0 69 c0 174 -103 337 -248 392
-74 27 -198 34 -269 14z m199 -115 c82 -23 167 -121 183 -212 l7 -38 -286 0
c-177 0 -286 4 -286 10 0 5 10 35 21 67 27 70 97 144 160 166 51 18 148 21
201 7z"/>
<path d="M6250 3594 c-87 -23 -138 -54 -200 -121 -124 -132 -153 -343 -70
-521 55 -119 164 -206 291 -233 71 -15 191 -6 261 21 72 27 160 105 194 171
37 73 34 79 -36 79 -55 0 -61 -2 -74 -27 -21 -42 -75 -89 -126 -112 -61 -28
-187 -29 -246 -2 -90 41 -165 137 -180 230 l-7 41 358 0 357 0 -4 88 c-6 105
-33 181 -89 252 -99 125 -267 177 -429 134z m212 -118 c83 -30 155 -119 174
-213 l7 -33 -288 0 -287 0 7 33 c21 95 95 182 182 213 48 17 157 17 205 0z"/>
<path d="M7623 3596 c-119 -29 -240 -121 -292 -224 -53 -104 -65 -235 -31
-345 64 -207 244 -329 464 -314 137 9 248 67 328 172 57 75 80 144 86 255 3
79 0 106 -18 159 -52 155 -165 259 -322 296 -75 18 -144 18 -215 1z m248 -134
c61 -30 113 -81 147 -145 24 -47 27 -62 27 -157 0 -91 -3 -112 -24 -154 -33
-66 -91 -122 -158 -153 -49 -23 -65 -25 -146 -21 -69 3 -103 10 -134 26 -60
31 -111 86 -142 151 -22 48 -26 69 -26 151 0 84 3 102 28 152 35 71 113 143
176 163 69 22 194 16 252 -13z"/>
<path d="M8700 3596 c-66 -19 -126 -52 -176 -98 l-44 -41 0 67 0 66 -60 0 -60
0 0 -610 0 -610 60 0 60 0 0 246 0 246 55 -50 c80 -73 145 -96 270 -97 92 0
105 3 167 32 234 110 325 393 204 631 -88 172 -296 268 -476 218z m227 -134
c60 -31 111 -86 142 -151 23 -49 26 -69 26 -156 0 -89 -3 -105 -27 -151 -40
-77 -73 -110 -140 -143 -111 -56 -252 -39 -343 41 -86 76 -126 200 -105 321
21 114 75 188 173 237 58 30 68 31 147 28 62 -3 96 -10 127 -26z"/>
<path d="M9675 3597 c-80 -21 -139 -54 -194 -109 -95 -95 -145 -251 -124 -390
18 -125 47 -184 127 -264 84 -84 148 -113 267 -121 167 -12 315 60 389 191 45
77 42 86 -28 86 -56 0 -57 0 -92 -47 -63 -85 -124 -113 -246 -113 -55 0 -81 5
-122 26 -69 34 -138 112 -157 177 -28 96 -63 87 341 87 l357 0 -5 83 c-9 142
-64 254 -164 329 -27 21 -69 45 -94 54 -61 21 -193 27 -255 11z m229 -132 c73
-35 133 -116 151 -202 l7 -33 -287 0 -287 0 5 28 c21 103 99 191 197 223 44
14 172 5 214 -16z"/>
<path d="M11089 3591 c-110 -35 -169 -108 -169 -208 0 -141 71 -212 267 -265
172 -47 215 -80 217 -164 2 -85 -80 -139 -196 -130 -86 6 -144 38 -176 97
l-27 49 -57 0 c-65 0 -67 -3 -46 -74 18 -59 99 -138 168 -162 84 -29 247 -26
317 5 94 42 143 117 143 220 0 72 -21 122 -71 173 -49 49 -50 49 -286 117 -52
16 -78 29 -97 52 -65 77 -35 160 69 189 89 25 176 -9 221 -86 26 -43 27 -44
80 -44 51 0 54 1 54 25 0 40 -45 120 -87 154 -46 38 -147 71 -217 70 -28 0
-76 -8 -107 -18z"/>
<path d="M10643 3579 c-47 -18 -107 -71 -140 -125 -10 -16 -12 -6 -12 59 l-1
77 -60 0 -60 0 0 -430 0 -430 59 0 59 0 4 263 c5 296 10 323 78 400 52 58 99
80 172 79 l59 -1 -3 62 -3 62 -50 2 c-31 2 -70 -5 -102 -18z"/>
<path d="M5094 3393 c51 -109 141 -303 201 -430 l109 -233 50 0 51 0 198 423
c108 232 197 425 197 430 0 4 -30 7 -67 7 l-68 0 -154 -336 c-85 -184 -157
-331 -162 -327 -4 4 -75 154 -157 333 l-149 325 -71 3 -71 3 93 -198z"/>
</g>
</svg>
